<svg width="26" height="26" viewBox="0 0 26 26" fill="none" xmlns="http://www.w3.org/2000/svg">
<rect width="26" height="26" rx="13" fill="#7289DA"/>
<path d="M19.52 8.54732C18.3274 7.5932 16.8962 7.11613 15.3855 7.03662L15.147 7.27515C16.4986 7.5932 17.6913 8.22928 18.8044 9.1039C17.4528 8.3883 15.9421 7.91124 14.3518 7.75222C13.8748 7.67271 13.4772 7.67271 13.0002 7.67271C12.5231 7.67271 12.1255 7.67271 11.6485 7.75222C10.0583 7.91124 8.54756 8.3883 7.19588 9.1039C8.30903 8.22928 9.50169 7.5932 10.8534 7.27515L10.6148 7.03662C9.10414 7.11613 7.67295 7.5932 6.48029 8.54732C5.1286 11.0917 4.41301 13.9541 4.3335 16.8959C5.52616 18.1681 7.19588 18.9632 8.94512 18.9632C8.94512 18.9632 9.50169 18.3271 9.89925 17.7706C8.86561 17.532 7.91148 16.9755 7.27539 16.1008C7.83197 16.4189 8.38854 16.7369 8.94512 16.9755C9.66071 17.2935 10.3763 17.4525 11.0919 17.6115C11.728 17.6911 12.3641 17.7706 13.0002 17.7706C13.6362 17.7706 14.2723 17.6911 14.9084 17.6115C15.624 17.4525 16.3396 17.2935 17.0552 16.9755C17.6118 16.7369 18.1684 16.4189 18.7249 16.1008C18.0888 16.9755 17.1347 17.532 16.1011 17.7706C16.4986 18.3271 17.0552 18.9632 17.0552 18.9632C18.8044 18.9632 20.4742 18.1681 21.6668 16.8959C21.5873 13.9541 20.8717 11.0917 19.52 8.54732ZM10.3763 15.4648C9.5812 15.4648 8.86561 14.7492 8.86561 13.8745C8.86561 12.9999 9.5812 12.2843 10.3763 12.2843C11.1714 12.2843 11.887 12.9999 11.887 13.8745C11.887 14.7492 11.1714 15.4648 10.3763 15.4648ZM15.624 15.4648C14.8289 15.4648 14.1133 14.7492 14.1133 13.8745C14.1133 12.9999 14.8289 12.2843 15.624 12.2843C16.4191 12.2843 17.1347 12.9999 17.1347 13.8745C17.1347 14.7492 16.4191 15.4648 15.624 15.4648Z" fill="white"/>
</svg>
