<svg width="26" height="26" viewBox="0 0 26 26" fill="none" xmlns="http://www.w3.org/2000/svg">
<rect width="26" height="26" rx="13" fill="#0077B5"/>
<path d="M20.2183 19.1343C19.3651 19.114 18.5323 19.114 17.6792 19.1343C17.4964 19.1343 17.4558 19.0936 17.4558 18.9108C17.4558 17.4077 17.4558 15.8843 17.4558 14.3811C17.4558 14.0358 17.4355 13.6905 17.3339 13.3655C17.0292 12.3093 15.8105 11.9233 14.937 12.6343C14.4698 12.9999 14.287 13.5077 14.287 14.1171C14.287 15.539 14.287 16.9608 14.287 18.3827C14.287 18.5655 14.2667 18.7483 14.287 18.9515C14.3073 19.114 14.2261 19.1546 14.0839 19.1343C13.2104 19.1343 12.3573 19.1343 11.4839 19.1343C11.3214 19.1343 11.2808 19.0936 11.2808 18.9311C11.3011 17.6515 11.3011 16.3718 11.3011 15.0718C11.3011 13.4874 11.3011 11.903 11.2808 10.339C11.2808 10.1561 11.3214 10.1155 11.4839 10.1155C12.3573 10.1155 13.2104 10.1155 14.0839 10.1155C14.2464 10.1155 14.287 10.1561 14.287 10.3186C14.287 10.6436 14.287 10.9686 14.287 11.3546C14.3479 11.2936 14.3683 11.2733 14.3886 11.253C15.1808 10.0952 16.298 9.77021 17.6183 9.97334C19.1417 10.2171 20.1167 11.2733 20.3605 12.8983C20.4214 13.2843 20.4417 13.6702 20.4417 14.0561C20.4417 15.6811 20.4417 17.2858 20.4417 18.9108C20.4417 19.0733 20.4011 19.1343 20.2183 19.1343Z" fill="white"/>
<path d="M9.65537 14.6251C9.65537 16.047 9.65537 17.4688 9.65537 18.8907C9.65537 19.0735 9.61475 19.1345 9.43193 19.1345C8.57881 19.1142 7.72568 19.1345 6.87256 19.1345C6.71006 19.1345 6.66943 19.0938 6.66943 18.9313C6.66943 16.0673 6.66943 13.1829 6.66943 10.3188C6.66943 10.1767 6.71006 10.1157 6.87256 10.1157C7.746 10.1157 8.61943 10.1157 9.49287 10.1157C9.67568 10.1157 9.696 10.1767 9.696 10.3392C9.65537 11.761 9.65537 13.1829 9.65537 14.6251Z" fill="white"/>
<path d="M9.79769 7.75945C9.59457 8.57195 8.76175 9.03913 7.80707 8.87663C6.79144 8.71413 6.22269 7.71882 6.58832 6.74382C6.83207 6.13445 7.42113 5.76882 8.17269 5.78913C9.31019 5.76882 10.0618 6.68288 9.79769 7.75945Z" fill="white"/>
</svg>
