<svg width="26" height="26" viewBox="0 0 26 26" fill="none" xmlns="http://www.w3.org/2000/svg">
<path d="M15.4245 16.627C15.5166 16.718 15.5166 16.8664 15.4245 16.9585C14.9208 17.459 14.131 17.7028 13.0076 17.7028L12.9989 17.7006L12.9903 17.7028C11.8679 17.7028 11.0771 17.459 10.5733 16.9574C10.4813 16.8664 10.4813 16.718 10.5733 16.627C10.6643 16.536 10.8138 16.536 10.9059 16.627C11.3165 17.0354 11.9979 17.2348 12.9903 17.2348L12.9989 17.2369L13.0076 17.2348C13.9988 17.2348 14.6803 17.0354 15.0919 16.627C15.184 16.536 15.3335 16.536 15.4245 16.627ZM11.6978 14.0075C11.6978 13.4583 11.2493 13.0119 10.699 13.0119C10.1476 13.0119 9.69908 13.4583 9.69908 14.0075C9.69908 14.5557 10.1476 15.002 10.699 15.002C11.2493 15.0031 11.6978 14.5568 11.6978 14.0075ZM26 13C26 20.1793 20.1793 26 13 26C5.82075 26 0 20.1793 0 13C0 5.82075 5.82075 0 13 0C20.1793 0 26 5.82075 26 13ZM20.5833 12.8603C20.5833 11.9383 19.8304 11.1887 18.9042 11.1887C18.4524 11.1887 18.0429 11.3696 17.7407 11.6599C16.5967 10.907 15.0486 10.4282 13.3358 10.3664L14.2729 7.41542L16.8112 8.01017L16.8079 8.047C16.8079 8.801 17.4243 9.41417 18.1816 9.41417C18.9388 9.41417 19.5542 8.801 19.5542 8.047C19.5542 7.293 18.9388 6.67983 18.1816 6.67983C17.5998 6.67983 17.1048 7.04275 16.9043 7.55083L14.1689 6.9095C14.0498 6.88025 13.9273 6.94958 13.8905 7.06658L12.8451 10.3578C11.0511 10.3794 9.42717 10.8626 8.23225 11.6372C7.93217 11.3609 7.53458 11.1876 7.09475 11.1876C6.16958 11.1887 5.41667 11.9383 5.41667 12.8603C5.41667 13.4734 5.75358 14.0043 6.24867 14.2957C6.21617 14.4733 6.1945 14.6543 6.1945 14.8373C6.1945 17.3084 9.23325 19.3191 12.9686 19.3191C16.7039 19.3191 19.7427 17.3084 19.7427 14.8373C19.7427 14.664 19.7243 14.4939 19.695 14.326C20.2215 14.0433 20.5833 13.4962 20.5833 12.8603V12.8603ZM15.3053 13.013C14.7539 13.013 14.3065 13.4593 14.3065 14.0086C14.3065 14.5568 14.755 15.0031 15.3053 15.0031C15.8557 15.0031 16.3042 14.5568 16.3042 14.0086C16.3042 13.4593 15.8568 13.013 15.3053 13.013Z" fill="#EB5428"/>
</svg>
