<svg width="26" height="26" viewBox="0 0 26 26" fill="none" xmlns="http://www.w3.org/2000/svg">
<rect width="26" height="26" rx="13" fill="#1DA1F2"/>
<path d="M19.3712 10.1902C19.3712 10.3324 19.3712 10.4746 19.3712 10.5964C19.3712 14.8011 16.1618 19.6558 10.3118 19.6558C8.504 19.6558 6.83838 19.1277 5.4165 18.2339C5.66025 18.2542 5.92432 18.2746 6.16807 18.2746C7.65088 18.2746 9.03213 17.7667 10.129 16.9136C8.72744 16.8933 7.54932 15.9589 7.16338 14.6996C7.3665 14.7402 7.54932 14.7605 7.77275 14.7605C8.05713 14.7605 8.3415 14.7199 8.60557 14.6386C7.14307 14.3542 6.04619 13.0746 6.04619 11.5308C6.04619 11.5105 6.04619 11.5105 6.04619 11.4902C6.47275 11.7339 6.96025 11.8761 7.48838 11.8964C6.63525 11.3277 6.0665 10.3527 6.0665 9.2355C6.0665 8.64644 6.229 8.098 6.49307 7.63081C8.05713 9.5605 10.4134 10.8199 13.054 10.9621C12.9931 10.7386 12.9728 10.4746 12.9728 10.2308C12.9728 8.46362 14.3946 7.04175 16.1618 7.04175C17.0759 7.04175 17.9087 7.42769 18.4774 8.03706C19.2087 7.89487 19.879 7.63081 20.5087 7.26519C20.2649 8.01675 19.7571 8.62612 19.1071 9.03237C19.7571 8.95112 20.3665 8.78862 20.9353 8.52456C20.529 9.17456 20.0009 9.74331 19.3712 10.1902Z" fill="white"/>
</svg>
