<svg width="26" height="26" viewBox="0 0 26 26" fill="none" xmlns="http://www.w3.org/2000/svg">
<rect width="26" height="26" rx="13" fill="#FF0000"/>
<path fill-rule="evenodd" clip-rule="evenodd" d="M19.3581 7.65906C20.0541 7.84645 20.6029 8.39526 20.7903 9.0913C21.1383 10.3629 21.1249 13.0132 21.1249 13.0132C21.1249 13.0132 21.1249 15.6502 20.7903 16.9218C20.6029 17.6178 20.0541 18.1666 19.3581 18.354C18.0864 18.6887 13 18.6887 13 18.6887C13 18.6887 7.92688 18.6887 6.64188 18.3406C5.94584 18.1532 5.39703 17.6044 5.20964 16.9084C4.875 15.6502 4.875 12.9999 4.875 12.9999C4.875 12.9999 4.875 10.3629 5.20964 9.0913C5.39703 8.39526 5.95922 7.83307 6.64188 7.64567C7.9135 7.31104 13 7.31104 13 7.31104C13 7.31104 18.0864 7.31104 19.3581 7.65906ZM15.6103 12.9998L11.3805 15.4359V10.5636L15.6103 12.9998Z" fill="white"/>
</svg>
